# xmcd
#
# Track frame offsets:
#	150
#	20920
#	44058
#	68383
#	90748
#	111525
#	138708
#	161383
#	184745
#	205540
#
# Disc length: 3053 seconds
#
# Revision: 0
# Processed by: cddbd v1.5.1PL0 Copyright (c) Steve Scherf et al.
# Submitted via: EasyCDDAExtractor 8.2.1.1
#
DISCID=8d0beb0a
DTITLE=ORHAN GENCEBAY - YA EVDE YOKSAN
DYEAR=1989
DGENRE=Alternative
TTITLE0=YA EVDE YOKSAN
TTITLE1=SENI ARIYORUM
TTITLE2=NAZAR DEGMEZ
TTITLE3=BAHCEVAN
TTITLE4=UYU EY GONLUM
TTITLE5=GOZUM SENDE
TTITLE6=HEP BOYLE KAL
TTITLE7=IC BENIM ICIN
TTITLE8=DEGISMEM GEREK
TTITLE9=SEV GONLUNCE YASA
EXTD=
EXTT0=
EXTT1=
EXTT2=
EXTT3=
EXTT4=
EXTT5=
EXTT6=
EXTT7=
EXTT8=
EXTT9=
PLAYORDER=
